<?xml version="1.0" encoding="UTF-8"?> <svg xmlns="http://www.w3.org/2000/svg" id="Layer_1" data-name="Layer 1" viewBox="0 0 1366 252.76"><title>whiteblock logo</title><path d="M468.93,89.66,438.73,190.4H422l-20.76-72.11a46.68,46.68,0,0,1-1.57-9.35h-.4a43.68,43.68,0,0,1-2.06,9.15L374.69,190.4H358.56L328.06,89.66H345l20.86,75.75a46,46,0,0,1,1.37,9.05H368a42.73,42.73,0,0,1,1.77-9.25L393,89.66h14.75l20.86,76a54.94,54.94,0,0,1,1.47,9h.79a41.91,41.91,0,0,1,1.67-9l20.46-76Z" transform="translate(0 -0.18)"></path><path d="M580.31,190.4H564.17v-58q0-31.49-23.41-31.48A25.54,25.54,0,0,0,520.89,110q-8.07,9.11-8.07,23.37V190.4H496.69V41.26h16.13v65.13h.4q11.6-19.1,33-19.09,34,0,34,41Z" transform="translate(0 -0.18)"></path><path d="M628,64.09a10.21,10.21,0,0,1-7.38-3,10,10,0,0,1-3-7.47A10.33,10.33,0,0,1,628,43.13a10.4,10.4,0,0,1,7.52,3,10.51,10.51,0,0,1,0,14.91A10.32,10.32,0,0,1,628,64.09ZM635.9,190.4H619.77V89.66H635.9Z" transform="translate(0 -0.18)"></path><path d="M732.41,189.41q-5.7,3.15-15,3.15-26.46,0-26.46-29.51V103.43H673.59V89.66H690.9V65.07L707,59.86v29.8h25.38v13.77H707V160.2q0,10.13,3.45,14.46T721.89,179a16.93,16.93,0,0,0,10.52-3.34Z" transform="translate(0 -0.18)"></path><path d="M846.4,144.06H775.28q.39,16.83,9.05,26t23.8,9.15q17,0,31.29-11.21v15.15q-13.29,9.63-35.12,9.64-21.34,0-33.55-13.73t-12.2-38.61q0-23.5,13.34-38.32T805,87.3q19.77,0,30.59,12.79T846.4,135.6Zm-16.53-13.67q-.09-14-6.74-21.74t-18.44-7.77A26.06,26.06,0,0,0,785.31,109q-8,8.17-9.84,21.35Z" transform="translate(0 -0.18)"></path><path d="M900.42,175.84H900V190.4H883.89V41.26H900v66.11h.4q11.9-20.07,34.82-20.07,19.38,0,30.35,13.53t11,36.25q0,25.28-12.3,40.48t-33.64,15.2Q910.64,192.76,900.42,175.84Zm-.4-40.63v14.07a30,30,0,0,0,8.12,21.2q8.11,8.7,20.61,8.7,14.65,0,23-11.21T960,136.78q0-16.82-7.77-26.36t-21-9.54q-14.07,0-22.63,9.79T900,135.21Z" transform="translate(0 -0.18)"></path><path d="M1023.5,190.4h-16.13V41.26h16.13Z" transform="translate(0 -0.18)"></path><path d="M1099.27,192.76q-22.32,0-35.65-14.12t-13.34-37.43q0-25.38,13.87-39.64t37.48-14.27q22.53,0,35.17,13.87t12.64,38.47q0,24.09-13.62,38.61T1099.27,192.76Zm1.18-91.88q-15.54,0-24.59,10.57t-9,29.17q0,17.91,9.15,28.23t24.49,10.33q15.65,0,24-10.13t8.42-28.82q0-18.9-8.42-29.12T1100.45,100.88Z" transform="translate(0 -0.18)"></path><path d="M1248.92,185.77q-11.61,7-27.55,7-21.54,0-34.77-14t-13.23-36.35q0-24.88,14.26-40t38.07-15.1a53,53,0,0,1,23.42,4.92v16.53a41,41,0,0,0-24-7.87q-15.43,0-25.33,11.06T1189.9,141q0,17.72,9.29,27.94t24.94,10.23q13.18,0,24.79-8.75Z" transform="translate(0 -0.18)"></path><path d="M1366,190.4h-22.63L1298.91,142h-.39v48.4h-16.14V41.26h16.14V135.8h.39l42.3-46.14h21.15l-46.73,48.6Z" transform="translate(0 -0.18)"></path><rect x="89.58" width="75.12" height="21.68"></rect><rect x="89.58" y="231.59" width="75.12" height="21.17"></rect><polygon points="21.43 66.9 21.43 21.68 68.4 21.68 68.4 0 0 0 0 66.9 21.43 66.9"></polygon><polygon points="231.34 66.9 252.76 66.9 252.76 0 185.87 0 185.87 21.68 231.34 21.68 231.34 66.9"></polygon><rect x="231.34" y="88.07" width="21.42" height="76.62"></rect><polygon points="231.34 185.87 231.34 231.59 185.87 231.59 185.87 252.76 252.76 252.76 252.76 185.87 231.34 185.87"></polygon><rect y="88.07" width="21.43" height="76.62"></rect><polygon points="21.43 185.87 0 185.87 0 252.76 68.4 252.76 68.4 231.59 21.43 231.59 21.43 185.87"></polygon></svg> 